<?xml version="1.0" standalone="no"?><!DOCTYPE svg PUBLIC "-//W3C//DTD SVG 1.1//EN" "http://www.w3.org/Graphics/SVG/1.1/DTD/svg11.dtd"><svg t="1607409462089" class="icon" viewBox="0 0 1024 1024" version="1.1" xmlns="http://www.w3.org/2000/svg" p-id="4057" width="48" height="48" xmlns:xlink="http://www.w3.org/1999/xlink"><defs><style type="text/css"></style></defs><path d="M957.2 0H66.8C30 0 0 30 0 66.8v890.4C0 994 30 1024 66.8 1024h890.4c36.8 0 66.8-30 66.8-66.8V66.8C1024 30 994 0 957.2 0z m22.3 957.2c0 12.3-10 22.3-22.3 22.3H66.8c-12.3 0-22.3-10-22.3-22.3V66.8c0-12.3 10-22.3 22.3-22.3h890.4c12.3 0 22.3 10 22.3 22.3v890.4z" p-id="4058" fill="#BFCBD9"></path><path d="M823.7 133.6H200.3c-36.8 0-66.8 30-66.8 66.8v44.5c0 36.8 30 66.8 66.8 66.8h623.3c36.8 0 66.8-30 66.8-66.8v-44.5c0-36.9-29.9-66.8-66.7-66.8z m22.2 111.3c0 12.3-10 22.3-22.3 22.3H200.3c-12.3 0-22.3-10-22.3-22.3v-44.5c0-12.3 10-22.3 22.3-22.3h623.3c12.3 0 22.3 10 22.3 22.3v44.5zM779.1 423c-49.1 0-89 39.9-89 89 0 40.2 26.7 74.2 63.3 85.2C734 712.9 633.1 801.4 512 801.4s-222-88.5-241.4-204.2c36.6-11.1 63.3-45.1 63.3-85.2 0-49.1-39.9-89-89-89s-89 39.9-89 89c0 42.5 30 78.1 69.9 86.9 20.6 139.5 141.1 247 286.3 247s265.7-107.5 286.3-247c39.9-8.8 69.9-44.4 69.9-86.9-0.1-49.1-40.1-89-89.2-89z m-578.8 89c0-24.5 20-44.5 44.5-44.5s44.5 20 44.5 44.5-20 44.5-44.5 44.5-44.5-20-44.5-44.5z m578.8 44.5c-24.5 0-44.5-20-44.5-44.5s20-44.5 44.5-44.5 44.5 20 44.5 44.5c0.1 24.5-19.9 44.5-44.5 44.5z" p-id="4059" fill="#BFCBD9"></path></svg>