<?xml version="1.0" encoding="UTF-8"?>
<svg width="32px" height="32px" viewBox="0 0 32 32" version="1.1" xmlns="http://www.w3.org/2000/svg" xmlns:xlink="http://www.w3.org/1999/xlink">
    <!-- <g id="income" stroke="none" stroke-width="1" fill="none" fill-rule="evenodd">
        <g id="编组备份-3" fill="#595EC6" fill-rule="nonzero"> -->
            <path d="M17.2072738,31.5552947 C16.5929599,31.9724496 15.7723522,32.0835894 15.0408087,31.8445627 L3.88039194,26.7587743 C3.27845197,26.5119735 2.60406843,26.5092432 2.00014984,26.7511619 L0.486821406,27.0404299 C0.391056572,27.0938109 0.275437587,27.0977782 0.176238906,27.0510872 C0.0820512161,27.0144356 0.0170336103,26.9272529 0.0087679375,26.8265239 L0.0087679375,21.998793 C0.01638025,21.542054 0.393951125,21.1530647 0.911588656,21.0670455 L4.002189,20.0538462 C4.38575832,19.9860654 4.7805522,20.0242288 5.14403644,20.1642248 C7.29147081,21.0282226 13.8890652,24.8427543 15.998438,24.8427543 C18.4457977,24.8427543 27.9018168,19.8825691 29.0939055,19.8825691 C30.2890392,19.8825691 31.7810563,19.9792455 31.7810563,21.1386012 C31.7879042,22.1160226 20.5620216,29.2495241 17.2080351,31.5545334 L17.2072738,31.5552947 Z" id="路径"></path>
            <path d="M15.8971942,22.1845335 C11.411003,22.1849031 7.36637836,19.482678 5.64949422,15.3380163 C3.93448167,11.1929231 4.884282,6.42293806 8.05627397,3.25094609 C11.2282659,0.0789541241 15.9982509,-0.870846208 20.1433442,0.844166344 C24.288091,2.56036433 26.9908826,6.60433658 26.9913838,11.0903439 C26.9913838,17.2167359 22.0243475,22.1837723 15.8971942,22.1837723 L15.8971942,22.1845335 Z M20.774835,11.0288216 C21.4413239,11.0281235 21.9814382,10.5101762 21.9821662,9.87104117 C21.9814382,9.2319061 21.4413239,8.71395887 20.774835,8.71326076 L18.2914843,8.71326076 L20.6658582,6.43316806 C21.093407,5.97562534 21.0716188,5.2769289 20.6163233,4.8447035 C20.1622461,4.41131426 19.4344163,4.39297617 18.9572336,4.8029018 L15.981836,7.65935124 L13.003136,4.8029018 C12.5277145,4.38724924 11.7956924,4.40290771 11.340071,4.83847594 C10.8844496,5.27404418 10.8658495,5.97597093 11.2978138,6.43316806 L13.6721877,8.71326076 L11.1894974,8.71326076 C10.5230086,8.71395887 9.98289421,9.2319061 9.98216622,9.87104117 C9.98289421,10.5101762 10.5230086,11.0281235 11.1894974,11.0288216 L14.7745048,11.0288216 L14.7745048,12.7477581 L11.1894974,12.7477581 C10.5230086,12.7484562 9.98289421,13.2664035 9.98216622,13.9055385 C9.98289423,14.5446736 10.5230086,15.0626208 11.1894974,15.0633189 L14.7745048,15.0633189 L14.7745048,17.3434116 C14.7752328,17.9825467 15.3153472,18.5004939 15.981836,18.501192 C16.6483248,18.5004939 17.1884392,17.9825467 17.1891672,17.3434116 L17.1891672,15.0633189 L20.7741746,15.0633189 C21.4409213,15.0629699 21.9814376,14.5449206 21.9821662,13.9055385 C21.9814382,13.2664035 21.4413239,12.7484562 20.774835,12.7477581 L17.1891672,12.7477581 L17.1891672,11.0288216 L20.7741746,11.0288216 L20.774835,11.0288216 Z" id="形状"></path>
        <!-- </g>
    </g> -->
</svg>