<?xml version="1.0" standalone="no"?><!DOCTYPE svg PUBLIC "-//W3C//DTD SVG 1.1//EN" "http://www.w3.org/Graphics/SVG/1.1/DTD/svg11.dtd"><svg t="1610002731513" class="icon" viewBox="0 0 5836 1024" version="1.1" xmlns="http://www.w3.org/2000/svg" p-id="12404" xmlns:xlink="http://www.w3.org/1999/xlink" width="1139.84375" height="200"><defs><style type="text/css"></style></defs><path d="M790.528 626.688H685.6704l-72.0896 130.2528h-75.3664V591.4624h271.1552V504.6272H538.2144v-98.304h158.9248v-0.8192h11.4688l231.8336 0.8192L502.1696 0v136.8064l178.5856 167.936H260.5056l178.5856-167.936V0L0 406.3232l177.7664-0.8192h60.6208v0.8192h163.84v98.304H131.072v86.8352h271.1552v165.4784h-75.3664l-72.0896-130.2528H149.9136l72.0896 130.2528H71.2704V843.776h797.9008V756.9408H718.4384l72.0896-130.2528zM1924.3008 728.2688h104.8576l131.072-238.3872 131.072 238.3872h104.8576l-178.5856-324.4032h194.9696V309.6576h-199.8848V140.9024h-104.8576v168.7552H1908.736v94.208h194.1504l-178.5856 324.4032zM1760.4608 179.4048h111.4112v113.8688h-111.4112z" p-id="12405"></path><path d="M1473.7408 140.9024h-104.0384v201.5232h-240.0256l110.592-201.5232h-104.0384L868.352 627.5072h104.8576l72.9088-133.5296V843.776h104.8576V436.6336h218.7264v312.1152H1187.84V843.776h467.7632V748.7488h-181.8624V436.6336h217.088V342.4256h-217.088V140.9024zM1871.872 748.7488V342.4256h-144.1792v94.208h39.3216v312.1152h-39.3216V843.776h684.8512l49.152-95.0272h-589.824zM5795.0208 389.9392c-46.6944 0-110.592 36.864-137.6256 97.4848l9.0112-86.016h-104.8576l-45.8752 440.7296h104.8576l27.0336-262.9632c4.9152-43.4176 56.5248-82.7392 111.4112-82.7392a174.65344 174.65344 0 0 1 65.536 10.6496l12.288-113.0496a143.19616 143.19616 0 0 0-41.7792-4.096zM3361.9968 842.1376L3407.872 401.408h-104.0384l-46.61248 439.74656 0.73728 0.98304h104.0384zM5058.56 401.408h-63.0784l13.9264-135.9872h-104.8576L4890.624 401.408h-65.536l-8.192 81.92h65.536l-36.864 358.8096h104.8576l36.864-358.8096h63.0784l8.192-81.92z" p-id="12406"></path><path d="M3321.856 231.8336h-135.9872l-318.34112 329.07264 34.89792-329.07264h-106.496l-64.7168 610.304h106.496l13.02528-122.79808 100.02432-103.54688v0.24576l171.2128 226.0992h135.168l0.08192-0.98304-230.27712-304.16896 294.0928-304.3328 0.8192-0.8192zM4594.8928 580.8128c-90.112-19.6608-93.3888-36.864-90.9312-58.9824s32.768-39.3216 94.208-39.3216h156.4672l8.192-81.92h-163.0208c-62.2592 0-185.1392 4.9152-198.2464 127.7952-9.0112 86.016 100.7616 106.496 162.2016 122.0608 77.0048 19.6608 110.592 40.1408 107.3152 70.4512-4.096 41.7792-48.3328 55.7056-100.7616 55.7056-34.4064 0-89.2928-19.6608-83.5584-74.5472h-114.688c-10.6496 132.7104 113.8688 151.552 191.6928 151.552 122.88 0 209.7152-53.248 218.7264-140.0832 7.3728-71.2704-61.44-104.0384-187.5968-132.7104zM4245.9136 451.3792c-5.7344-21.2992-45.056-61.44-122.0608-61.44-117.9648 0-195.7888 108.1344-208.0768 225.28-17.2032 160.5632 81.1008 226.9184 162.2016 226.9184 69.632 0 122.88-40.1408 133.5296-61.44l16.384-156.4672-20.48 197.4272c-4.9152 55.7056-25.3952 123.6992-115.5072 123.6992-31.9488 0-79.4624-10.6496-81.92-67.9936h-104.8576c-6.5536 67.1744 49.9712 146.6368 181.0432 146.6368 121.2416 0 210.5344-72.9088 225.28-213.8112l42.5984-408.7808h-103.2192z m-17.2032 160.5632c-10.6496 101.5808-55.7056 148.2752-111.4112 148.2752-93.3888 0-104.0384-90.9312-98.304-145.8176 7.3728-71.2704 56.5248-144.1792 125.3376-144.1792 49.152-0.8192 95.8464 31.1296 84.3776 141.7216zM3725.7216 389.9392a170.63936 170.63936 0 0 0-128.6144 60.6208l4.9152-49.152h-104.8576l-45.8752 440.7296h104.8576l23.7568-232.6528 5.7344-58.9824a95.27296 95.27296 0 0 1 93.3888-81.1008c46.6944 0 81.1008 36.0448 76.1856 81.1008l-30.3104 291.6352h104.8576l31.9488-306.3808c8.192-80.2816-53.248-145.8176-135.9872-145.8176z" p-id="12407"></path><path d="M3321.0368 232.6528l-10.6496 99.9424h104.8576l10.6496-100.7616h-104.0384l-0.8192 0.8192zM5314.9696 401.408H5120l-8.192 81.92h170.3936c57.344 0 85.1968 8.192 78.6432 65.536v3.2768s-91.7504 6.5536-143.36 12.288c-62.2592 6.5536-169.5744 40.96-180.224 149.9136-8.192 80.2816 39.3216 140.0832 135.9872 140.0832 93.3888 0 137.6256-27.8528 161.3824-49.9712l-4.096 38.5024h104.8576l10.6496-103.2192 21.2992-203.9808c5.7344-56.5248-30.3104-133.5296-152.3712-134.3488z m32.768 280.9856c-17.2032 80.2816-90.9312 99.9424-140.0832 99.9424-33.5872 0-66.3552-19.6608-61.44-72.0896 2.4576-27.0336 15.5648-67.9936 88.4736-78.6432 63.0784-8.192 111.4112-13.1072 118.784-13.9264z" p-id="12408"></path></svg>