<?xml version="1.0" encoding="UTF-8"?>
<svg width="32px" height="32px" viewBox="0 0 32 32" version="1.1" xmlns="http://www.w3.org/2000/svg" xmlns:xlink="http://www.w3.org/1999/xlink">
    <!-- <title>profit</title>
    <g id="profit" stroke="none" stroke-width="1" fill="none" fill-rule="evenodd">
        <g id="编组备份-5" transform="translate(0.000000, 1.000000)" fill="#595EC6" fill-rule="nonzero"> -->
            <path d="M24.7748447,3.98680124 C24.8757764,3.19875776 24.3555901,2.47670807 23.6180124,2.38354037 L5.0931677,0.0194099379 C4.35559006,-0.073757764 3.67236025,0.493012422 3.57142857,1.2810559 L2.96195652,6.07142857 L24.5186335,6.0015528 L24.7748447,3.98680124 L24.7748447,3.98680124 Z M22.201087,18.431677 C22.201087,18.431677 22.201087,18.435559 22.201087,18.431677 C22.201087,19.386646 22.9736025,20.1591615 23.9246894,20.1591615 C24.8796584,20.1591615 25.6521739,19.386646 25.6521739,18.435559 L25.6521739,18.431677 C25.6521739,17.4767081 24.8796584,16.7041925 23.9285714,16.7041925 C22.9774845,16.7041925 22.201087,17.4805901 22.201087,18.431677 Z" id="形状"></path>
            <path d="M31.8322981,14.3051242 L31.8322981,10.7919255 C31.8322981,9.00621118 30.3726708,7.54658385 28.5869565,7.54658385 L3.24534161,7.54658385 C1.45962733,7.54658385 0,9.00621118 0,10.7919255 L0,27.6513975 C0,29.4371118 1.45962733,30.8967391 3.24534161,30.8967391 L28.5869565,30.8967391 C30.3726708,30.8967391 31.8322981,29.4371118 31.8322981,27.6513975 L31.8322981,22.3680124 C31.8322981,21.9332298 31.4790373,21.5799689 31.0442547,21.5799689 L23.6840062,21.5799689 C21.8982919,21.5799689 20.4386646,20.1203416 20.4386646,18.3346273 C20.4386646,16.548913 21.8982919,15.0892857 23.6840062,15.0892857 L31.0442547,15.0892857 C31.4790373,15.0931677 31.8322981,14.7399068 31.8322981,14.3051242 Z" id="路径"></path>
        <!-- </g>
    </g> -->
</svg>