<?xml version="1.0" encoding="UTF-8"?>
<svg width="50px" height="45px" viewBox="0 0 50 45" version="1.1" xmlns="http://www.w3.org/2000/svg" xmlns:xlink="http://www.w3.org/1999/xlink">
    <!-- Generator: Sketch 63.1 (92452) - https://sketch.com -->
    <title>编组 2备份 4</title>
    <desc>Created with Sketch.</desc>
    <defs>
        <path d="M8,0 L38,0 C40.209139,-4.05812251e-16 42,1.790861 42,4 L42,33 C42,35.209139 40.209139,37 38,37 L8,37 C3.581722,37 5.41083001e-16,33.418278 0,29 L0,8 C-5.41083001e-16,3.581722 3.581722,8.11624501e-16 8,0 Z" id="path-1"></path>
        <filter x="-16.7%" y="-13.5%" width="133.3%" height="137.8%" filterUnits="objectBoundingBox" id="filter-2">
            <feOffset dx="0" dy="2" in="SourceAlpha" result="shadowOffsetOuter1"></feOffset>
            <feGaussianBlur stdDeviation="2" in="shadowOffsetOuter1" result="shadowBlurOuter1"></feGaussianBlur>
            <feColorMatrix values="0 0 0 0 0   0 0 0 0 0   0 0 0 0 0  0 0 0 0.5 0" type="matrix" in="shadowBlurOuter1"></feColorMatrix>
        </filter>
    </defs>
    <g id="模式页面" stroke="none" stroke-width="1" fill="none" fill-rule="evenodd">
        <g id="绀青蓝单列表（浅色模式）备份-3" transform="translate(-1609.000000, -213.000000)">
            <g id="编组-2备份-4" transform="translate(1613.000000, 215.000000)">
                <g id="矩形">
                    <use fill="black" fill-opacity="1" filter="url(#filter-2)" xlink:href="#path-1"></use>
                    <use fill="#E7E4E4" fill-rule="evenodd" xlink:href="#path-1"></use>
                </g>
                <g id="编组" fill="#030303">
                    <path d="M5,0 L38,0 C40.209139,-4.05812251e-16 42,1.790861 42,4 L42,5 L42,5 L0,5 C-3.38176876e-16,2.23857625 2.23857625,5.07265313e-16 5,0 Z" id="矩形备份-5"></path>
                    <path d="M4,0 L12,0 L12,0 L12,37 L4,37 C1.790861,37 2.705415e-16,35.209139 0,33 L0,4 C-2.705415e-16,1.790861 1.790861,4.05812251e-16 4,0 Z" id="矩形备份-2"></path>
                </g>
            </g>
        </g>
    </g>
</svg>