<?xml version="1.0" encoding="UTF-8"?>
<svg width="600px" height="1080px" viewBox="0 0 600 1080" version="1.1" xmlns="http://www.w3.org/2000/svg" xmlns:xlink="http://www.w3.org/1999/xlink">
    <!-- Generator: Sketch 63 (92445) - https://sketch.com -->
    <title>paopao</title>
    <desc>Created with Sketch.</desc>
    <g id="paopao" stroke="none" stroke-width="1" fill="none" fill-rule="evenodd" opacity="0.08">
        <path d="M239.300518,148.535054 C285.412507,133.881712 334.037309,96.9552921 373.433213,115.468839 C426.736017,140.517737 476.700515,119.564282 476.045529,72.163597 C475.210552,11.7370418 372.651562,8.52651283e-14 272.325781,8.52651283e-14 C172,8.52651283e-14 96.8806986,19.5148655 86.3779673,72.163597 C75.875236,124.812329 125.272768,184.770482 239.300518,148.535054 Z" id="椭圆形" fill="#FFFFFF"></path>
        <ellipse id="椭圆形" fill="#FFFFFF" transform="translate(356.000000, 271.500000) rotate(-22.000000) translate(-356.000000, -271.500000) " cx="356" cy="271.5" rx="13" ry="21.5"></ellipse>
        <ellipse id="椭圆形备份" fill="#FFFFFF" transform="translate(255.536408, 768.687303) rotate(-22.000000) translate(-255.536408, -768.687303) " cx="255.536408" cy="768.687303" rx="20.5" ry="21.5"></ellipse>
        <ellipse id="椭圆形" fill="#FFFFFF" cx="173" cy="559.5" rx="163" ry="136.5"></ellipse>
        <path d="M447.982398,766.5 C379.423837,781.411925 340.600698,847.396442 256.800349,858.819307 C173,870.242172 83.8314052,882.492067 89.0057363,973.543554 C94.1800674,1064.59504 301.07336,1100.43522 442.116236,1054.99097 C583.159113,1009.54672 603.990596,896.646546 587.272111,840.518257 C570.553627,784.389968 516.54096,751.588075 447.982398,766.5 Z" id="路径-16" fill="#FFFFFF"></path>
    </g>
</svg>